<?xml version="1.0" encoding="utf-8"?>
<!-- Generator: Adobe Illustrator 22.1.0, SVG Export Plug-In . SVG Version: 6.00 Build 0)  -->
<svg version="1.1" id="Layer_1" xmlns="http://www.w3.org/2000/svg" xmlns:xlink="http://www.w3.org/1999/xlink" x="0px" y="0px"
	 viewBox="0 0 190 16" style="enable-background:new 0 0 190 16;" xml:space="preserve">
<style type="text/css">
	.st0{fill:#FFFFFF;}
</style>
<g>
	<path class="st0" d="M7.6,5.9L2.3,7.8l5.3,1.9v2L0,8.8v-2l7.6-2.9V5.9z"/>
	<path class="st0" d="M12.1,12.8c-0.9-0.5-1.6-1.2-2.2-2c-0.5-0.9-0.8-1.9-0.8-3s0.3-2.1,0.8-3s1.2-1.6,2.2-2
		C13,2.3,14,2.1,15.2,2.1c1,0,1.8,0.2,2.6,0.5s1.4,0.8,2,1.5l-1.7,1.5c-0.8-0.9-1.7-1.3-2.8-1.3c-0.7,0-1.3,0.2-1.8,0.5
		s-1,0.7-1.3,1.3c-0.3,0.5-0.5,1.2-0.5,1.8s0.2,1.3,0.5,1.8s0.7,1,1.3,1.3c0.5,0.3,1.2,0.5,1.8,0.5c1.1,0,2-0.4,2.8-1.3l1.7,1.5
		c-0.5,0.6-1.2,1.1-2,1.5c-0.8,0.3-1.7,0.5-2.6,0.5C14,13.6,13,13.3,12.1,12.8z"/>
	<path class="st0" d="M23.5,12.8c-0.9-0.5-1.7-1.2-2.2-2.1s-0.8-1.9-0.8-2.9c0-1.1,0.3-2.1,0.8-2.9c0.5-0.9,1.2-1.6,2.2-2.1
		c0.9-0.5,2-0.7,3.1-0.7c1.2,0,2.2,0.2,3.1,0.7s1.6,1.2,2.2,2.1c0.5,0.9,0.8,1.9,0.8,2.9c0,1.1-0.3,2.1-0.8,2.9
		c-0.5,0.9-1.3,1.6-2.2,2.1c-0.9,0.5-2,0.7-3.1,0.7C25.5,13.6,24.4,13.3,23.5,12.8z M28.4,10.9c0.5-0.3,0.9-0.7,1.2-1.3
		c0.3-0.5,0.5-1.2,0.5-1.8S29.9,6.5,29.6,6s-0.7-1-1.2-1.3s-1.1-0.5-1.8-0.5c-0.7,0-1.2,0.2-1.8,0.5C24.3,5,23.9,5.4,23.6,6
		c-0.3,0.5-0.5,1.2-0.5,1.8s0.2,1.3,0.5,1.8s0.7,1,1.2,1.3s1.1,0.5,1.8,0.5C27.3,11.4,27.9,11.2,28.4,10.9z"/>
	<path class="st0" d="M34.6,2.3h5c1.2,0,2.3,0.2,3.2,0.7s1.6,1.1,2.2,1.9c0.5,0.8,0.8,1.8,0.8,2.9s-0.3,2.1-0.8,2.9
		c-0.5,0.8-1.2,1.5-2.2,1.9c-0.9,0.5-2,0.7-3.2,0.7h-5V2.3z M39.6,11.3c1.1,0,2-0.3,2.7-0.9c0.7-0.6,1-1.5,1-2.5
		c0-1.1-0.3-1.9-1-2.5s-1.5-0.9-2.7-0.9h-2.3v6.9h2.3V11.3z"/>
	<path class="st0" d="M56.4,11.3v2.1h-8.6V2.3h8.4v2.1h-5.8v2.4h5.2v2h-5.2v2.6L56.4,11.3L56.4,11.3z"/>
	<path class="st0" d="M59.2,14.2h7.9v1.4h-7.9C59.2,15.6,59.2,14.2,59.2,14.2z"/>
	<path class="st0" d="M71.8,5H74v1.9h-2.1v6.4h-2.5V6.9h-1.3V5h1.3V4.6c0-1,0.3-1.7,0.9-2.3s1.4-0.9,2.4-0.9c0.4,0,0.7,0,1.1,0.1
		c0.3,0.1,0.6,0.2,0.8,0.3l-0.7,1.8c-0.3-0.2-0.6-0.3-1-0.3c-0.8,0-1.1,0.4-1.1,1.2C71.8,4.5,71.8,5,71.8,5z"/>
	<path class="st0" d="M76.7,12.9C76,12.5,75.4,12,75,11.3S74.4,9.9,74.4,9s0.2-1.6,0.6-2.3s1-1.2,1.7-1.6s1.5-0.6,2.4-0.6
		s1.7,0.2,2.4,0.6c0.7,0.4,1.3,0.9,1.7,1.6c0.4,0.7,0.6,1.4,0.6,2.3s-0.2,1.6-0.6,2.3s-1,1.2-1.7,1.6s-1.5,0.6-2.4,0.6
		C78.3,13.5,77.5,13.3,76.7,12.9z M80.7,10.8c0.4-0.4,0.6-1,0.6-1.7s-0.2-1.3-0.6-1.7s-0.9-0.6-1.6-0.6c-0.6,0-1.2,0.2-1.6,0.6
		s-0.6,1-0.6,1.7s0.2,1.3,0.6,1.7s0.9,0.6,1.6,0.6C79.8,11.5,80.3,11.2,80.7,10.8z"/>
	<path class="st0" d="M89.1,5c0.5-0.2,1.1-0.3,1.7-0.3V7c-0.3,0-0.5,0-0.6,0c-0.7,0-1.3,0.2-1.7,0.6c-0.4,0.4-0.6,1-0.6,1.8v4h-2.5
		V4.8h2.4V6C88.2,5.5,88.6,5.2,89.1,5z"/>
	<path class="st0" d="M90.9,14.2h7.9v1.4h-7.9V14.2z"/>
	<path class="st0" d="M108,2.7c0.7,0.3,1.3,0.8,1.7,1.4c0.4,0.6,0.6,1.3,0.6,2.1s-0.2,1.5-0.6,2.1c-0.4,0.6-0.9,1.1-1.7,1.4
		c-0.7,0.3-1.6,0.5-2.6,0.5h-2.2v3.1h-2.6v-11h4.8C106.5,2.3,107.3,2.4,108,2.7z M107.1,7.7c0.4-0.3,0.6-0.8,0.6-1.4
		s-0.2-1.1-0.6-1.4s-1-0.5-1.8-0.5h-2.1v3.9h2.1C106.1,8.2,106.7,8,107.1,7.7z"/>
	<path class="st0" d="M114.6,12.8c-0.9-0.5-1.7-1.2-2.2-2.1s-0.8-1.9-0.8-2.9c0-1.1,0.3-2.1,0.8-2.9c0.5-0.9,1.2-1.6,2.2-2.1
		c0.9-0.5,2-0.7,3.1-0.7c1.2,0,2.2,0.2,3.1,0.7s1.6,1.2,2.2,2.1c0.5,0.9,0.8,1.9,0.8,2.9c0,1.1-0.3,2.1-0.8,2.9
		c-0.5,0.9-1.3,1.6-2.2,2.1c-0.9,0.5-2,0.7-3.1,0.7C116.5,13.6,115.5,13.3,114.6,12.8z M119.4,10.9c0.5-0.3,0.9-0.7,1.2-1.3
		c0.3-0.5,0.5-1.2,0.5-1.8S121,6.5,120.7,6s-0.7-1-1.2-1.3s-1.1-0.5-1.8-0.5c-0.7,0-1.2,0.2-1.8,0.5C115.4,5,115,5.4,114.7,6
		c-0.3,0.5-0.5,1.2-0.5,1.8s0.2,1.3,0.5,1.8s0.7,1,1.2,1.3s1.1,0.5,1.8,0.5C118.3,11.4,118.9,11.2,119.4,10.9z"/>
	<path class="st0" d="M134.6,11.3v2.1h-9.7v-1.7l6.1-7.3h-6V2.3h9.4V4l-6.1,7.3H134.6z"/>
	<path class="st0" d="M146.4,2.3v11.1h-2.1l-5.5-6.7v6.7h-2.5V2.3h2.1l5.5,6.7V2.3H146.4z"/>
	<path class="st0" d="M156.4,11h-5.2l-1,2.4h-2.6l5-11.1h2.5l5,11.1h-2.7L156.4,11z M155.6,9l-1.8-4.3L152,9H155.6z"/>
	<path class="st0" d="M171.4,2.3v11.1h-2.1l-5.5-6.7v6.7h-2.5V2.3h2.1l5.5,6.7V2.3H171.4z"/>
	<path class="st0" d="M178.4,0h2.2l-5.2,15h-2.2L178.4,0z"/>
	<path class="st0" d="M189.3,6.8v2.1l-7.6,2.9v-2l5.3-1.9L181.7,6V4L189.3,6.8z"/>
</g>
</svg>
