<?xml version="1.0" encoding="UTF-8" standalone="no"?>
<svg
  fill="#ffffff"
   xmlns:dc="http://purl.org/dc/elements/1.1/"
   xmlns:cc="http://creativecommons.org/ns#"
   xmlns:rdf="http://www.w3.org/1999/02/22-rdf-syntax-ns#"
   xmlns:svg="http://www.w3.org/2000/svg"
   xmlns="http://www.w3.org/2000/svg"
   viewBox="0 0 140.08147 128.03653"
   height="128.03653"
   width="140.08147"
   xml:space="preserve"
   id="svg3767"
   version="1.1"><metadata
     id="metadata3773"><rdf:RDF><cc:Work
         rdf:about=""><dc:format>image/svg+xml</dc:format><dc:type
           rdf:resource="http://purl.org/dc/dcmitype/StillImage" /><dc:title></dc:title></cc:Work></rdf:RDF></metadata><defs
     id="defs3771"><clipPath
       id="clipPath3783"
       clipPathUnits="userSpaceOnUse"><path
         id="path3781"
         d="M 0,240 H 240 V 0 H 0 Z" /></clipPath></defs><g
     transform="matrix(1.3333333,0,0,-1.3333333,-89.958931,224.01826)"
     id="g3775"><g
       id="g3777"><g
         clip-path="url(#clipPath3783)"
         id="g3779"><g
           transform="translate(88.3652,136.0298)"
           id="g3785"><path
             id="path3787"
             style="fill:#ffffff;fill-opacity:1;fill-rule:nonzero;stroke:none"
             d="m 0,0 c -0.924,0.496 -1.649,1.185 -2.178,2.066 -0.529,0.881 -0.793,1.876 -0.793,2.987 0,1.11 0.264,2.106 0.793,2.987 0.529,0.88 1.254,1.569 2.178,2.065 0.924,0.497 1.962,0.745 3.115,0.745 0.971,0 1.85,-0.171 2.634,-0.512 C 6.534,9.996 7.193,9.505 7.728,8.864 L 6.062,7.327 C 5.304,8.202 4.364,8.64 3.243,8.64 2.549,8.64 1.93,8.488 1.386,8.184 0.841,7.879 0.416,7.455 0.112,6.911 -0.192,6.366 -0.345,5.747 -0.345,5.053 -0.345,4.358 -0.192,3.739 0.112,3.195 0.416,2.65 0.841,2.226 1.386,1.922 1.93,1.617 2.549,1.465 3.243,1.465 c 1.121,0 2.061,0.443 2.819,1.329 L 7.728,1.257 C 7.193,0.605 6.531,0.109 5.741,-0.232 4.951,-0.574 4.07,-0.745 3.099,-0.745 1.956,-0.745 0.924,-0.497 0,0" /></g><g
           transform="translate(104.8203,137.9517)"
           id="g3789"><path
             id="path3791"
             style="fill:#ffffff;fill-opacity:1;fill-rule:nonzero;stroke:none"
             d="M 0,0 C 0.534,0.304 0.953,0.729 1.258,1.273 1.562,1.817 1.714,2.437 1.714,3.131 1.714,3.825 1.562,4.444 1.258,4.989 0.953,5.533 0.534,5.958 0,6.262 -0.533,6.566 -1.131,6.718 -1.793,6.718 -2.455,6.718 -3.053,6.566 -3.587,6.262 -4.121,5.958 -4.54,5.533 -4.844,4.989 -5.148,4.444 -5.301,3.825 -5.301,3.131 -5.301,2.437 -5.148,1.817 -4.844,1.273 -4.54,0.729 -4.121,0.304 -3.587,0 c 0.534,-0.305 1.132,-0.457 1.794,-0.457 0.662,0 1.26,0.152 1.793,0.457 m -4.94,-1.914 c -0.934,0.502 -1.665,1.193 -2.194,2.074 -0.529,0.881 -0.793,1.871 -0.793,2.971 0,1.099 0.264,2.09 0.793,2.971 0.529,0.88 1.26,1.572 2.194,2.074 0.934,0.501 1.983,0.752 3.147,0.752 1.163,0 2.21,-0.251 3.139,-0.752 C 2.274,7.674 3.006,6.982 3.54,6.102 4.073,5.221 4.341,4.23 4.341,3.131 4.341,2.031 4.073,1.041 3.54,0.16 3.006,-0.721 2.274,-1.412 1.346,-1.914 0.417,-2.416 -0.63,-2.667 -1.793,-2.667 c -1.164,0 -2.213,0.251 -3.147,0.753" /></g><g
           transform="translate(116.0791,137.6069)"
           id="g3793"><path
             id="path3795"
             style="fill:#ffffff;fill-opacity:1;fill-rule:nonzero;stroke:none"
             d="M 0,0 C 1.121,0 2.016,0.312 2.683,0.937 3.35,1.562 3.684,2.408 3.684,3.476 3.684,4.543 3.35,5.389 2.683,6.014 2.016,6.639 1.121,6.951 0,6.951 H -2.37 V 0 Z M -4.965,9.081 H 0.128 C 1.346,9.081 2.421,8.849 3.355,8.384 4.289,7.92 5.016,7.266 5.533,6.422 6.051,5.579 6.311,4.597 6.311,3.476 6.311,2.354 6.051,1.372 5.533,0.529 5.016,-0.315 4.289,-0.969 3.355,-1.433 2.421,-1.897 1.346,-2.13 0.128,-2.13 h -5.093 z" /></g><g
           transform="translate(133.0234,137.5591)"
           id="g3797"><path
             id="path3799"
             style="fill:#ffffff;fill-opacity:1;fill-rule:nonzero;stroke:none"
             d="M 0,0 V -2.082 H -8.681 V 9.129 h 8.473 V 7.047 H -6.102 V 4.612 h 5.205 V 2.594 H -6.102 V 0 Z" /></g><g
           transform="translate(88.6611,124.6831)"
           id="g3801"><path
             id="path3803"
             style="fill:#ffffff;fill-opacity:1;fill-rule:nonzero;stroke:none"
             d="M 0,0 H 2.211 V -1.922 H 0.064 v -6.502 h -2.498 v 6.502 h -1.33 V 0 h 1.33 v 0.384 c 0,0.982 0.29,1.762 0.872,2.338 0.583,0.577 1.402,0.865 2.459,0.865 0.374,0 0.729,-0.04 1.065,-0.12 C 2.299,3.387 2.579,3.272 2.803,3.123 L 2.146,1.313 C 1.858,1.516 1.521,1.617 1.138,1.617 0.379,1.617 0,1.201 0,0.368 Z" /></g><g
           transform="translate(97.6865,118.8291)"
           id="g3805"><path
             id="path3807"
             style="fill:#ffffff;fill-opacity:1;fill-rule:nonzero;stroke:none"
             d="M 0,0 C 0.41,0.433 0.616,1.012 0.616,1.738 0.616,2.464 0.41,3.043 0,3.476 -0.411,3.908 -0.937,4.124 -1.578,4.124 -2.219,4.124 -2.747,3.908 -3.163,3.476 -3.58,3.043 -3.788,2.464 -3.788,1.738 -3.788,1.012 -3.58,0.433 -3.163,0 c 0.416,-0.432 0.944,-0.648 1.585,-0.648 0.641,0 1.167,0.216 1.578,0.648 m -4.021,-2.13 c -0.72,0.379 -1.283,0.905 -1.689,1.578 -0.405,0.672 -0.608,1.435 -0.608,2.29 0,0.854 0.203,1.617 0.608,2.29 0.406,0.673 0.969,1.199 1.689,1.577 0.721,0.379 1.536,0.569 2.443,0.569 0.908,0 1.72,-0.19 2.434,-0.569 C 1.571,5.227 2.132,4.701 2.538,4.028 2.943,3.355 3.146,2.592 3.146,1.738 3.146,0.883 2.943,0.12 2.538,-0.552 2.132,-1.225 1.571,-1.751 0.856,-2.13 0.142,-2.509 -0.67,-2.698 -1.578,-2.698 c -0.907,0 -1.722,0.189 -2.443,0.568" /></g><g
           transform="translate(106.0947,124.6831)"
           id="g3809"><path
             id="path3811"
             style="fill:#ffffff;fill-opacity:1;fill-rule:nonzero;stroke:none"
             d="m 0,0 c 0.507,0.213 1.091,0.32 1.753,0.32 v -2.306 c -0.277,0.021 -0.464,0.032 -0.561,0.032 -0.714,0 -1.275,-0.2 -1.681,-0.601 -0.406,-0.4 -0.609,-1.001 -0.609,-1.801 V -8.424 H -3.596 V 0.192 H -1.21 V -0.945 C -0.911,-0.529 -0.508,-0.214 0,0" /></g><g
           transform="translate(92.585,102.75)"
           id="g3813"><path
             id="path3815"
             style="fill:#ffffff;fill-opacity:1;fill-rule:nonzero;stroke:none"
             d="M 0,0 C 0.406,0.336 0.609,0.813 0.609,1.434 0.609,2.063 0.406,2.546 0,2.883 -0.405,3.219 -0.998,3.387 -1.777,3.387 h -2.115 v -3.892 h 2.115 C -0.998,-0.505 -0.405,-0.337 0,0 M 0.953,5.005 C 1.685,4.674 2.248,4.204 2.643,3.595 3.038,2.986 3.235,2.266 3.235,1.434 3.235,0.611 3.038,-0.107 2.643,-0.721 2.248,-1.335 1.685,-1.805 0.953,-2.13 0.222,-2.456 -0.641,-2.619 -1.633,-2.619 H -3.892 V -5.71 H -6.486 V 5.501 h 4.853 c 0.992,0 1.855,-0.166 2.586,-0.496" /></g><g
           transform="translate(105.0439,99.5146)"
           id="g3817"><path
             id="path3819"
             style="fill:#ffffff;fill-opacity:1;fill-rule:nonzero;stroke:none"
             d="M 0,0 C 0.535,0.305 0.953,0.729 1.258,1.273 1.562,1.817 1.715,2.437 1.715,3.131 1.715,3.825 1.562,4.444 1.258,4.989 0.953,5.533 0.535,5.958 0,6.262 -0.533,6.566 -1.131,6.719 -1.793,6.719 -2.455,6.719 -3.053,6.566 -3.586,6.262 -4.12,5.958 -4.539,5.533 -4.844,4.989 -5.147,4.444 -5.3,3.825 -5.3,3.131 -5.3,2.437 -5.147,1.817 -4.844,1.273 -4.539,0.729 -4.12,0.305 -3.586,0 c 0.533,-0.305 1.131,-0.456 1.793,-0.456 0.662,0 1.26,0.151 1.793,0.456 m -4.939,-1.914 c -0.935,0.502 -1.666,1.193 -2.195,2.074 -0.528,0.881 -0.793,1.871 -0.793,2.971 0,1.099 0.265,2.09 0.793,2.971 0.529,0.88 1.26,1.572 2.195,2.074 0.933,0.502 1.983,0.753 3.146,0.753 1.164,0 2.211,-0.251 3.139,-0.753 C 2.275,7.674 3.006,6.982 3.541,6.102 4.074,5.221 4.342,4.23 4.342,3.131 4.342,2.031 4.074,1.041 3.541,0.16 3.006,-0.721 2.275,-1.412 1.346,-1.914 0.418,-2.416 -0.629,-2.667 -1.793,-2.667 c -1.163,0 -2.213,0.251 -3.146,0.753" /></g><g
           transform="translate(120.3076,99.1543)"
           id="g3821"><path
             id="path3823"
             style="fill:#ffffff;fill-opacity:1;fill-rule:nonzero;stroke:none"
             d="m 0,0 v -2.114 h -9.802 v 1.681 l 6.151,7.415 H -9.674 V 9.097 H -0.24 V 7.415 L -6.374,0 Z" /></g><g
           transform="translate(132.2549,108.251)"
           id="g3825"><path
             id="path3827"
             style="fill:#ffffff;fill-opacity:1;fill-rule:nonzero;stroke:none"
             d="m 0,0 v -11.211 h -2.13 l -5.59,6.807 v -6.807 h -2.562 V 0 h 2.146 l 5.573,-6.807 V 0 Z" /></g><g
           transform="translate(141.4795,101.4121)"
           id="g3829"><path
             id="path3831"
             style="fill:#ffffff;fill-opacity:1;fill-rule:nonzero;stroke:none"
             d="M 0,0 -1.777,4.293 -3.556,0 Z M 0.816,-1.97 H -4.388 L -5.381,-4.372 H -8.04 L -3.043,6.839 H -0.48 L 4.532,-4.372 H 1.81 Z" /></g><g
           transform="translate(157.4629,108.251)"
           id="g3833"><path
             id="path3835"
             style="fill:#ffffff;fill-opacity:1;fill-rule:nonzero;stroke:none"
             d="m 0,0 v -11.211 h -2.13 l -5.59,6.807 v -6.807 h -2.562 V 0 h 2.146 l 5.573,-6.807 V 0 Z" /></g><g
           transform="translate(68.2192,167.2637)"
           id="g3837"><path
             id="path3839"
             style="fill:#ffffff;fill-opacity:1;fill-rule:nonzero;stroke:none"
             d="M 0,0 H 18.386 V -4.411 H 4.527 v -85.705 h 13.859 v -4.411 H 0 Z" /></g><g
           transform="translate(171.7803,72.7363)"
           id="g3841"><path
             id="path3843"
             style="fill:#ffffff;fill-opacity:1;fill-rule:nonzero;stroke:none"
             d="m 0,0 h -18.385 v 4.411 h 13.859 v 85.705 h -13.859 v 4.411 H 0 Z" /></g></g></g></g></svg>